<?xml version="1.0"?>
<svg xmlns:rdf="http://www.w3.org/1999/02/22-rdf-syntax-ns#" xmlns="http://www.w3.org/2000/svg" xmlns:cc="http://web.resource.org/cc/" xmlns:xlink="http://www.w3.org/1999/xlink" xmlns:dc="http://purl.org/dc/elements/1.1/" xmlns:svg="http://www.w3.org/2000/svg" id="svg2" viewBox="0 0 90 90" version="1.0">
  <defs id="defs5">
    <linearGradient id="linearGradient6258">
      <stop id="stop6260" stop-color="#7f8767" offset="0"/>
      <stop id="stop7251" stop-color="#322e00" offset=".5"/>
      <stop id="stop6262" offset="1"/>
    </linearGradient>
    <linearGradient id="linearGradient4253">
      <stop id="stop4255" stop-color="#d7d7a5" offset="0"/>
      <stop id="stop4263" stop-color="#a6ac53" offset=".5"/>
      <stop id="stop15547" stop-color="#4d6b29" offset=".75"/>
      <stop id="stop4257" stop-color="#302a00" offset="1"/>
    </linearGradient>
    <filter id="filter4231">
      <feGaussianBlur id="feGaussianBlur4233" stdDeviation="0.41373736"/>
    </filter>
    <radialGradient id="radialGradient4259" xlink:href="#linearGradient4253" gradientUnits="userSpaceOnUse" cy="377.28" cx="276.14" gradientTransform="matrix(.78203 1.351 -1.2577 .72799 298.16 -612.03)" r="17.944"/>
    <radialGradient id="radialGradient5239" gradientUnits="userSpaceOnUse" cy="358.61" cx="284.93" gradientTransform="matrix(1.787 .50690 -.17677 .65533 -396.85 -360.12)" r="10.063">
      <stop id="stop14572" stop-color="#d7d7a5" offset="0"/>
      <stop id="stop14574" stop-color="#7eac53" offset=".5"/>
      <stop id="stop14576" stop-color="#302a00" offset="1"/>
    </radialGradient>
    <radialGradient id="radialGradient6264" xlink:href="#linearGradient6258" gradientUnits="userSpaceOnUse" cy="388.31" cx="264.28" gradientTransform="matrix(.70309 .050608 -.40326 2.5426 239 -622.08)" r="14.625"/>
    <filter id="filter9203">
      <feGaussianBlur id="feGaussianBlur9205" stdDeviation="0.51616105"/>
    </filter>
    <radialGradient id="radialGradient9213" gradientUnits="userSpaceOnUse" cy="395.21" cx="277.94" gradientTransform="matrix(1.1116 -2.3848 .6486 .30234 -522.66 601.31)" r="7.9275">
      <stop id="stop9209" stop-opacity="0" offset="0"/>
      <stop id="stop9211" offset="1"/>
    </radialGradient>
    <radialGradient id="radialGradient9247" xlink:href="#linearGradient6258" gradientUnits="userSpaceOnUse" cy="376.63" cx="277.88" gradientTransform="matrix(-1.7777 .17655 -.18118 -1.1739 796.65 747.52)" r="19.873"/>
    <radialGradient id="radialGradient9255" xlink:href="#linearGradient6258" gradientUnits="userSpaceOnUse" cy="359.26" cx="221.23" gradientTransform="matrix(1.9156 -1.0437 1.1044 1.3043 -603.94 114.51)" r="19.873"/>
    <radialGradient id="radialGradient9263" xlink:href="#linearGradient6258" gradientUnits="userSpaceOnUse" cy="332.08" cx="190.14" gradientTransform="matrix(2.2355 .41590 -.11305 .60766 -160.03 71.259)" r="19.873"/>
    <radialGradient id="radialGradient10236" xlink:href="#linearGradient4253" gradientUnits="userSpaceOnUse" cy="357.88" cx="498.83" gradientTransform="matrix(-1.5761 -.11017 -.12157 -.78907 1063.8 689.89)" r="19.873"/>
    <radialGradient id="radialGradient10240" xlink:href="#linearGradient4253" gradientUnits="userSpaceOnUse" cy="355.29" cx="221.9" gradientTransform="matrix(1.4399 .055563 -.042986 .71688 -83.403 84.978)" r="19.873"/>
    <filter id="filter13597">
      <feGaussianBlur id="feGaussianBlur13599" stdDeviation="1.4711815"/>
    </filter>
    <filter id="filter16558">
      <feGaussianBlur id="feGaussianBlur16560" stdDeviation="0.80484375"/>
    </filter>
  </defs>
  <g id="layer1">
    <g id="g16562">
      <path id="path11588" filter="url(#filter13597)" fill-rule="evenodd" transform="matrix(1.1708 0 0 1.1708 -7.2984 -12.061)" d="m40.041 13.31c0.076 3.249 0.558 5.471 1 6.719-1.176 4.554-3.606 7.993-1.812 12.625-2.207 1.722-4.116 3.994-5.719 6.5-0.008 0.012-0.024 0.019-0.031 0.031-0.19 0.147-0.326 0.329-0.375 0.562-0.256 0.421-0.484 0.848-0.719 1.282-0.007 0.012-0.024 0.018-0.031 0.031-3.131 2.427-5.296 2.452-6.813 4.406-3.685 1.659-5.262 5.893-8.071 7.153-1.31 0.86 0.606 2.503 1.625 1.5 2.387-0.915 4.992-5.749 7.102-7.965 1.522-0.644 3.106-1.237 4.625-1.875-0.105 0.262-0.215 0.517-0.312 0.781-0.445 1.204-0.83 2.408-1.156 3.562-0.064 0.226-0.129 0.432-0.188 0.657-0.86 0.085-1.542 1.02-2.281 1.437-1.888 3.884-5.866 6.36-6.375 8.656-2.819 1.979-4.819 5.038-5.844 9.532 0.695 0.91 1.715-0.128 1.844-0.938 0.897-2.297 3.22-4.615 4.375-7.562 1.857-1.601 5.124-4.992 7.656-8.282-1.182 6.611-0.12 12.498 3.688 18.313 0.315-1.036 0.65-2.041 1-3.063 0.065-0.191 0.152-0.372 0.218-0.562 1.918 2.795 4.687 4.469 8.063 4.469 1.839 0 3.698-0.505 5.5-1.407-0.296 1.261-0.591 2.536-0.906 3.782 0.538-0.28 1.066-0.576 1.593-0.875 4.006-2.273 7.649-5.116 10.469-8.594-0.225 3.67-1.801 7.023-1.187 8.969-1.452 3.123-1.672 6.783-0.313 11.187 1.058 0.441 1.418-0.953 1.125-1.719-0.372-2.437 0.505-5.62 0.031-8.75 0.952-2.725 2.357-8.56 2.719-13.125 1.282-2.214 2.235-4.65 2.781-7.312 1.558 2.841 2.503 4.931 3.782 6.469 0.641 2.966 1.046 4.333 1.531 6.593 0.446 1.125 2.117 0.243 1.5-0.718-0.286-1.88-0.955-4.13-2.344-6.157-0.518-2.721-2.26-6.344-3.625-8.468-0.16-0.003-0.309-0.024-0.469-0.032 0.456-3.693 0.358-7.28-0.5-10.468 0.156-0.089 0.301-0.194 0.407-0.313 2.119-1.344 4.19-3.72 3.75-6.406 1.432-2.014 3.03-6.015 6.125-9.625 0.233-0.535-0.278-1.14-0.844-1.031-2.895 4.672-5.477 6.734-7.656 11.437-0.669 1.397-1.652 2.631-2.469 3.938-0.037-0.093-0.055-0.19-0.094-0.282-0.057-0.137-0.127-0.271-0.187-0.406-0.997-2.215-2.431-4.165-4.438-5.687 2.06 1.541 3.67 3.51 4.438 5.687 0.004-0.744-0.103-1.51-0.313-2.312-0.571-2.189-1.866-4.186-3.594-5.782 1.941 0.597 3.783 0.243 4.344-0.968 0.491-1.059-0.134-2.467-1.437-3.532-0.27-0.616-1.007-1.223-2.063-1.562-1.386-0.445-2.833-0.289-3.5 0.312-0.022 0.01-0.041 0.022-0.062 0.032-0.568-0.221-1.182-0.405-1.844-0.532-0.231-0.044-0.461-0.064-0.688-0.093-0.488-0.949-1.777-1.635-3.375-1.782-0.49-0.213-1.09-0.349-1.75-0.312-1.286 0.071-2.317 0.711-2.593 1.469-0.646 0.524-1.038 1.15-1 1.843 0.051 0.934 0.84 1.712 2 2.157-1.747 0.716-3.032 2.009-3.719 3.656-0.626 0.3-1.246 0.619-1.844 1-0.869-4.059 1.452-8.084 1.281-11.656 0.705-1.931-0.122-3.451-1.093-5.813-0.11-0.443-0.393-0.876-0.938-0.781zm7.469 15.75c0.041-0.003 0.084 0.002 0.125 0-0.252 0.056-0.499 0.115-0.75 0.187-0.134 0.019-0.273 0.04-0.406 0.063-0.286 0.049-0.562 0.089-0.844 0.156-0.951 0.227-1.88 0.585-2.781 1 1.259-0.783 2.837-1.287 4.656-1.406z"/>
      <g id="g11520" transform="matrix(1.1708 0 0 1.1708 -283.7 -403.5)" fill="#333" fill-rule="evenodd">
        <path id="path6958" d="m266.91 372.39c-2.61 0.1-5.34 1.66-6.32 4.15-2.06 0.1-4.04 1.24-4.8 3.22-2.16 0.23-2.11 2.9-1.79 4.49 0.12 1.19 0.55 2.69-0.45 3.53-0.33 1.15 1.32 1.41 1.77 0.46 1.79-1.89 0.54-4.69 1.15-6.9 1.23-1.43 3-2.06 4.59-2.98 2.56-2.12 5.69-4.06 9.13-3.4 1.17-0.03 0.88-1.73-0.15-1.75-0.92-0.6-2.03-0.87-3.13-0.82z"/>
        <path id="path6956" d="m275.89 348.13c-1.15 0.28-0.1 1.68-0.92 2.31-1.03 1.28-3.32 2.57-2.37 4.51 0.45 1.88 1.41 3.75 2.66 5.21-2.03 2.38-1.19 6.05 0.33 8.45 0.99 0.69 1.59-0.82 1.23-1.6-0.16-2.43 0.07-4.89 0.2-7.28-0.12-2.02-1.47-3.71-2.76-5.09 0.7-1.93 3.56-3.36 2.58-5.72-0.11-0.44-0.4-0.89-0.95-0.79z"/>
        <path id="path11500" d="m264.87 384.29c-2.18 1.98-3.94 4.44-6.29 6.27-2.35 1.72-2.83 4.97-2.79 7.63-2 1.39-3.73 3.22-5.38 4.97-0.33 1.05 1.21 1.46 1.68 0.56 2.51-1.85 5.43-3.71 6.36-6.92 0.57-1.34 0.59-3.08 0.9-4.32 3.19-0.26 5.31-3.39 6.24-6.19 0.37-0.78 0.69-2.22-0.72-2z"/>
        <path id="path11502" d="m295.63 394.76c-1 0.35-1.11 1.72-1.61 2.56-0.87 2.43-1.19 5.69 0.74 7.68-2.62 2.76-4.12 6.71-3.12 10.5 0.48 1.16-0.07 2.8 0.89 3.68 1.06 0.44 1.42-0.96 1.13-1.73-0.03-2.02-0.11-4.2-0.35-6.12 2.26-1.98 3.89-5.02 3.18-8.07-0.31-2.68 0.17-5.43-0.05-8.08-0.16-0.28-0.49-0.45-0.81-0.42z"/>
        <path id="path11504" d="m308.5 358.11c-1.85 0.68-1.89 3.01-1.48 4.64 0.07 0.81 0.51 2.3-0.81 2.17-2.44 0.52-4.56 2.25-5.35 4.64-0.92 1.92-2.44 3.53-3.29 5.45 0.1 1.1 1.39 0.74 1.91 0.17 2.12-1.35 4.2-3.74 3.75-6.42 2.27-0.61 4.29-2.03 5.82-3.74 0.98-1.87-1.44-4.29 0.3-5.87 0.23-0.54-0.28-1.15-0.85-1.04z"/>
        <path id="path11506" d="m298.26 385.95c-1 0.3-0.47 1.62 0.48 1.51 2.77 0.76 4.53 3.18 5.83 5.59 0.87 0.93 2.05 2 2.18 3.28-0.94 1.47-3.26 2.99-2.24 5 0.44 1.12 2.11 0.23 1.49-0.73 0.78-1.55 3.25-2.41 2.97-4.42-0.28-0.68-1.08-0.9-0.82-1.76-0.02-1.5-1.64-2.26-2.5-3.03 0.19-2.98-2.91-5.12-5.61-5.41-0.59-0.01-1.19-0.08-1.78-0.03z"/>
      </g>
      <g id="g15581" filter="url(#filter16558)" transform="matrix(.45490 0 0 .45490 24.053 25.058)" fill="#808080" fill-rule="evenodd">
        <path id="path15551" d="m11.062 18.938c-6.8613-0.052-12.39 4.92-15.593 10.5-5.1572-0.026-9.518 3.341-11.77 7.669-5.536 1.173-4.09 8.043-3.387 12.174 1.125 2.192-0.776 6.574-0.812 7.344 5.937-5.88-1.856-17.169 6.969-21.437 9.8763-4.489 17.882-14.353 29.625-14.032 1.913 0.22 4.775 0.377 1.281-0.718-1.858-1.119-4.12-1.574-6.313-1.5z"/>
        <path id="path15553" d="m34.375-41.406c0.306 5.907-10.218 7.927-6.75 14.281 0.993 5.068 4.491 8.789 6.563 13.219-4.639 5.3168-3.343 14.441 0.187 19.062-1.37-7.732 1.324-16.014-0.344-23.562-0.961-5.003-9.42-8.733-4.469-13.75 1.933-2.995 6.472-5.985 4.782-10.063l0.031 0.813z"/>
        <path id="path15555" d="m6.0938 49.688c-5.7339 6.352-11.922 12.21-18.032 18.093-3.719 4.725-2.583 11.202-4.281 16.5-4.503 3.172-9.709 8.163-12.437 11.657 7.554-5.695 16.83-12.237 17.468-22.719-0.08-3.952 1.2936-7.842 5.7818-7.781 6.459-2.706 10.094-9.652 11.75-16l-0.25 0.25z"/>
        <path id="path15557" d="m84.156 76.219c-4.074 6.978-5.931 17.169-0.25 23.901-6.484 7.62-11.153 18.11-7.5 28.22 0.296 1.92-0.078 4.04 0.75 5.82 0.476-6.4-1.373-13.22-0.344-19.47 6.393-5.16 9.335-13.69 7.282-21.596-0.335-5.588 0.575-11.475 0.062-16.875z"/>
        <path id="path15559" d="m116.53-16.969c-5.28 4.401 2.61 13.143-3.62 16.688-7.7 0.44124-12.73 7.0571-15.222 13.719-1.828 3.261-5.013 6.888-6.063 9.812 6.049-3.432 10.895-9.656 10.345-16.875 5.4-2.3179 12.3-4.867 14.94-10.531-0.1-4.1306-3.06-9.155-0.38-12.813z"/>
        <path id="path15561" d="m93.25 53.594c9.87 2.97 13.68 13.397 19.94 20.468 5.07 6.154-7.74 10.109-4.44 15.876-1.06-5.373 8.19-7.095 7.13-12.188-3.15-2.192-0.51-6.879-4.54-8.531-5.17-2.168-2.68-9.068-7.46-11.875-2.87-2.569-7.6-4.12-10.63-3.75z"/>
      </g>
      <path id="path9235" transform="matrix(.32323 .062009 -.062009 .32323 4.3564 -109.87)" fill="url(#radialGradient9263)" d="m244.29 356.82a19.873 9.9363 0 1 1 -39.74 0 19.873 9.9363 0 1 1 39.74 0z"/>
      <path id="path6248" transform="matrix(1.1708 0 -.24880 1.244 -176.33 -423.89)" fill="url(#radialGradient6264)" d="m285 378.61a14.625 20 0 1 1 -29.25 0 14.625 20 0 1 1 29.25 0z"/>
      <path id="path4265" fill="url(#radialGradient5239)" d="m50.649 19.313c-4.059 0-7.076 2.03-8.313 5.085 1.736-1.173 4.042-1.866 6.743-1.866 7.036 0 14.179 4.64 16.234 10.465 0.005-0.871-0.112-1.768-0.357-2.708-1.58-6.059-7.986-10.976-14.307-10.976z"/>
      <path id="path2169" filter="url(#filter4231)" fill-rule="evenodd" transform="matrix(1.1708 0 0 1.1708 -7.2984 -12.061)" d="m32.021 70.955c4.009-13.187 10.932-25.19 19.191-36.676 0.418 11.799-1.912 26.37-5.331 39.875 8.614-4.478 15.975-11.413 17.486-21.537 1.479-9.916-0.925-19.291-10.875-22.39-9.756-3.039-18.592 5.652-22.177 15.353-3.56 9.634-3.404 17.572 1.706 25.375z"/>
      <path id="path8224" d="m36.077 66.096c1.377-0.291 1.637 1.27 3.515 2.197 2.364 1.166 5.386 0.214 5.491-0.879 0.165-1.702-11.289-6.391-9.752-8.313 1.302-1.627 10.631 6.336 10.631 6.336s1.098-0.879 1.098-3.734c0-2.856-10.381-5.905-10.161-7.168 0.603-3.469 10.381 5.411 10.381 5.411s1.318-4.393 0.659-5.711-8.702-2.444-7.494-4.366c1.259-2.002 8.372 3.487 8.372 3.487s1.977-3.295 0.22-4.832c-1.757-1.538-5.003-3.552-5.003-3.552 0.872-1.216 5.414 2.102 6.541 3.112l-3.075 21.307s-5.053 2.196-7.469 1.757-5.711-2.416-5.271-3.295c0.439-0.878 0.219-1.812 1.317-1.757z" fill-rule="evenodd" transform="matrix(1.1708 0 0 1.1708 -7.2984 -12.061)" filter="url(#filter9203)" fill="url(#radialGradient9213)"/>
      <path id="path4235" fill-rule="evenodd" fill="url(#radialGradient4259)" d="m30.192 71.014c2.945-9.684 7.231-18.824 12.404-27.61 3.074-5.222 8.842-15.512 10.066-15.332 0.976 0.236-0.207 13.023-1.104 20.108-1.106 8.736-2.928 17.848-5.138 26.579 10.086-5.243 18.704-13.362 20.472-25.216 1.732-11.609-1.083-22.585-12.732-26.214-11.422-3.558-21.768 6.617-25.965 17.976-4.168 11.279-3.985 20.573 1.997 29.709z"/>
      <path id="path9239" transform="matrix(-.23954 -.11102 -.13840 .29861 164.2 -61.48)" fill="url(#radialGradient9247)" d="m244.29 356.82a19.873 9.9363 0 1 1 -39.74 0 19.873 9.9363 0 1 1 39.74 0z"/>
      <path id="path10234" transform="matrix(-.17172 -.055148 -.098497 .18445 134.43 -35.187)" fill="url(#radialGradient10236)" d="m244.29 356.82a19.873 9.9363 0 1 1 -39.74 0 19.873 9.9363 0 1 1 39.74 0z"/>
      <path id="path9237" transform="matrix(.26362 -.014494 .018068 .32862 -15.988 -96.781)" fill="url(#radialGradient9255)" d="m244.29 356.82a19.873 9.9363 0 1 1 -39.74 0 19.873 9.9363 0 1 1 39.74 0z"/>
      <path id="path10238" transform="matrix(.16385 -.0090085 .011230 .20425 7.9247 -55.188)" fill="url(#radialGradient10240)" d="m244.29 356.82a19.873 9.9363 0 1 1 -39.74 0 19.873 9.9363 0 1 1 39.74 0z"/>
    </g>
  </g>
  <metadata>
    <rdf:RDF>
      <cc:Work>
        <dc:format>image/svg+xml</dc:format>
        <dc:type rdf:resource="http://purl.org/dc/dcmitype/StillImage"/>
        <cc:license rdf:resource="http://creativecommons.org/licenses/publicdomain/"/>
        <dc:publisher>
          <cc:Agent rdf:about="http://openclipart.org/">
            <dc:title>Openclipart</dc:title>
          </cc:Agent>
        </dc:publisher>
        <dc:title>Bug Buddy Vector</dc:title>
        <dc:date>2007-01-07T02:41:02</dc:date>
        <dc:description>Icon Bug-Buddy version Vector using Blur Inkscape 0.45</dc:description>
        <dc:source>http://openclipart.org/detail/2817/bug-buddy-vector-by-valessiobrito-2817</dc:source>
        <dc:creator>
          <cc:Agent>
            <dc:title>valessiobrito</dc:title>
          </cc:Agent>
        </dc:creator>
        <dc:subject>
          <rdf:Bag>
            <rdf:li>bug</rdf:li>
            <rdf:li>clip art</rdf:li>
            <rdf:li>clipart</rdf:li>
            <rdf:li>gnome</rdf:li>
            <rdf:li>icon</rdf:li>
            <rdf:li>image</rdf:li>
            <rdf:li>media</rdf:li>
            <rdf:li>png</rdf:li>
            <rdf:li>public domain</rdf:li>
            <rdf:li>svg</rdf:li>
          </rdf:Bag>
        </dc:subject>
      </cc:Work>
      <cc:License rdf:about="http://creativecommons.org/licenses/publicdomain/">
        <cc:permits rdf:resource="http://creativecommons.org/ns#Reproduction"/>
        <cc:permits rdf:resource="http://creativecommons.org/ns#Distribution"/>
        <cc:permits rdf:resource="http://creativecommons.org/ns#DerivativeWorks"/>
      </cc:License>
    </rdf:RDF>
  </metadata>
</svg>
