<?xml version="1.0"?>
<svg xmlns:rdf="http://www.w3.org/1999/02/22-rdf-syntax-ns#" xmlns="http://www.w3.org/2000/svg" xmlns:cc="http://creativecommons.org/ns#" xmlns:dc="http://purl.org/dc/elements/1.1/" xmlns:svg="http://www.w3.org/2000/svg" id="svg4432" viewBox="0 0 671.25 946.86" version="1.0">
  <g id="layer1" transform="translate(-31.705 -23.216)">
    <g id="g6398" transform="matrix(1.2009 0 0 1.2009 -82.797 -66.116)">
      <g id="g6400" transform="matrix(.89758 0 0 1 36.715 -59.83)">
        <path id="path6402" transform="matrix(2.7496 0 0 3.0749 -577.8 -680.5)" fill="#ffff02" d="m427.02 379.49a79.985 65.442 0 1 1 0 -0.03"/>
        <path id="path6404" stroke-linejoin="round" d="m440.79 671.11c42.42-17.56 135.95-74.04 136.41-189.54 0.45-116.16-104.05-203.53-210.66-200.81-104.98 2.71-217.69 66.19-218.48 200.37-0.79 133.52 121.3 198.68 312.46 244.17 114.33 27.81-276.09 24.69-230 37.91 56.84 16.3 319.52 31.54 240.4 49.99-76.1 17.74-198.01 8.9-241.7 30.54-39.18 19.41 426.59 17.44 189.69 60.57" stroke="#000" stroke-linecap="round" stroke-width="38.849" fill="none"/>
        <path id="path6406" d="m281.49 443.66c49.68 21.43 89.4 54.29 166.5-6.8" stroke="#000" stroke-linecap="round" stroke-width="38.301" fill="none"/>
        <path id="path6408" d="m85.51 279.7l47.64 52.51" stroke="#000" stroke-linecap="round" stroke-width="38.242" fill="none"/>
        <path id="path6410" stroke="#000" stroke-width=".73543px" fill="none" d="m240.1 169.84c-0.32 0-0.64 0 0 0z"/>
        <path id="path6412" d="m222.6 170.81l23.34 57.36" stroke="#000" stroke-linecap="round" stroke-width="38.242" fill="none"/>
        <path id="path6414" d="m452.06 152.34l-13.61 61.25" stroke="#000" stroke-linecap="round" stroke-width="38.242" fill="none"/>
        <path id="path6416" d="m667.91 247.62l-55.42 43.75" stroke="#000" stroke-linecap="round" stroke-width="38.242" fill="none"/>
      </g>
      <path id="path6418" transform="matrix(1.6599 0 0 .97991 -165.25 -228.45)" fill="#fff" d="m310.37 548.12a28.045 52.351 0 1 1 0 -0.02"/>
    </g>
  </g>
  <metadata>
    <rdf:RDF>
      <cc:Work>
        <dc:format>image/svg+xml</dc:format>
        <dc:type rdf:resource="http://purl.org/dc/dcmitype/StillImage"/>
        <cc:license rdf:resource="http://creativecommons.org/licenses/publicdomain/"/>
        <dc:publisher>
          <cc:Agent rdf:about="http://openclipart.org/">
            <dc:title>Openclipart</dc:title>
          </cc:Agent>
        </dc:publisher>
        <dc:title>idea</dc:title>
        <dc:date>2008-01-03T19:15:16</dc:date>
        <dc:description>bulb, bulb, clip art, clipart, icon, icon, image, media, png, public domain, svg, </dc:description>
        <dc:source>http://openclipart.org/detail/10515/idea-by-yves_guillou-10515</dc:source>
        <dc:creator>
          <cc:Agent>
            <dc:title>yves_guillou</dc:title>
          </cc:Agent>
        </dc:creator>
        <dc:subject>
          <rdf:Bag>
            <rdf:li>bulb</rdf:li>
            <rdf:li>clip art</rdf:li>
            <rdf:li>clipart</rdf:li>
            <rdf:li>icon</rdf:li>
            <rdf:li>image</rdf:li>
            <rdf:li>media</rdf:li>
            <rdf:li>png</rdf:li>
            <rdf:li>public domain</rdf:li>
            <rdf:li>svg</rdf:li>
          </rdf:Bag>
        </dc:subject>
      </cc:Work>
      <cc:License rdf:about="http://creativecommons.org/licenses/publicdomain/">
        <cc:permits rdf:resource="http://creativecommons.org/ns#Reproduction"/>
        <cc:permits rdf:resource="http://creativecommons.org/ns#Distribution"/>
        <cc:permits rdf:resource="http://creativecommons.org/ns#DerivativeWorks"/>
      </cc:License>
    </rdf:RDF>
  </metadata>
</svg>
